<svg width="16.875000" height="14.375000" viewBox="0 0 16.875 14.375" fill="none" xmlns="http://www.w3.org/2000/svg" xmlns:xlink="http://www.w3.org/1999/xlink">
	<desc>
			Created with Pixso.
	</desc>
	<defs/>
	<path id="Vector" d="M15.3125 0L1.5625 0C1.14807 0 0.750671 0.164619 0.457642 0.457645C0.164612 0.750671 0 1.1481 0 1.5625L0 12.8125C0 13.2269 0.164612 13.6243 0.457642 13.9174C0.750671 14.2104 1.14807 14.375 1.5625 14.375L15.3125 14.375C15.7269 14.375 16.1243 14.2104 16.4174 13.9174C16.7104 13.6243 16.875 13.2269 16.875 12.8125L16.875 1.5625C16.875 1.1481 16.7104 0.750671 16.4174 0.457645C16.1243 0.164619 15.7269 0 15.3125 0ZM15 12.5L1.875 12.5L1.875 1.875L15 1.875L15 12.5ZM4.375 4.0625C4.375 3.81386 4.47375 3.5754 4.6496 3.39959C4.82538 3.22377 5.06384 3.125 5.3125 3.125C5.56116 3.125 5.79962 3.22377 5.9754 3.39959C6.15125 3.5754 6.25 3.81386 6.25 4.0625C6.25 4.64266 6.48047 5.19906 6.89069 5.60929C7.30096 6.01953 7.85736 6.25 8.4375 6.25C9.01764 6.25 9.57404 6.01953 9.98431 5.60929C10.3945 5.19906 10.625 4.64266 10.625 4.0625C10.625 3.81386 10.7238 3.5754 10.8996 3.39959C11.0754 3.22377 11.3138 3.125 11.5625 3.125C11.8112 3.125 12.0496 3.22377 12.2254 3.39959C12.4012 3.5754 12.5 3.81386 12.5 4.0625C12.5 5.13994 12.072 6.17325 11.3101 6.93512C10.5483 7.69699 9.51495 8.125 8.4375 8.125C7.36005 8.125 6.32672 7.69699 5.56488 6.93512C4.80304 6.17325 4.375 5.13994 4.375 4.0625Z" fill="#3624FF" fill-opacity="1.000000" fill-rule="nonzero"/>
</svg>
