<svg width="14.374451" height="15.625000" viewBox="0 0 14.3745 15.625" fill="none" xmlns="http://www.w3.org/2000/svg" xmlns:xlink="http://www.w3.org/1999/xlink">
	<desc>
			Created with Pixso.
	</desc>
	<defs/>
	<path id="Vector" d="M14.2411 12.0445C14.1777 12.1502 14.0942 12.2423 13.9953 12.3157C13.8963 12.3891 13.7839 12.4422 13.6644 12.4721C13.5449 12.502 13.4207 12.5081 13.2989 12.4899C13.177 12.4718 13.06 12.4298 12.9543 12.3664L8.12466 9.46796L8.12466 14.6875C8.12466 14.9361 8.02588 15.1746 7.85007 15.3504C7.67426 15.5262 7.43579 15.625 7.18716 15.625C6.93851 15.625 6.70007 15.5262 6.52426 15.3504C6.34842 15.1746 6.24966 14.9361 6.24966 14.6875L6.24966 9.46796L1.41998 12.3664C1.31439 12.4297 1.19739 12.4717 1.07562 12.4898C0.953827 12.508 0.829681 12.5019 0.710236 12.4721C0.59079 12.4422 0.478394 12.3891 0.379456 12.3158C0.280518 12.2426 0.196991 12.1505 0.133636 12.0449C0.00570679 11.8317 -0.0323181 11.5764 0.0279846 11.3352C0.0882568 11.0939 0.241913 10.8865 0.455139 10.7586L5.3653 7.8125L0.455139 4.86639C0.241913 4.73846 0.0882568 4.53107 0.0279846 4.28983C-0.0323181 4.04858 0.00570679 3.79327 0.133636 3.58008C0.261597 3.36688 0.468994 3.21323 0.710236 3.15292C0.951447 3.09265 1.20676 3.13065 1.41998 3.25861L6.24966 6.15704L6.24966 0.9375C6.24966 0.688873 6.34842 0.450409 6.52426 0.274597C6.70007 0.0987854 6.93851 0 7.18716 0C7.43579 0 7.67426 0.0987854 7.85007 0.274597C8.02588 0.450409 8.12466 0.688873 8.12466 0.9375L8.12466 6.15704L12.9543 3.25861C13.0599 3.19525 13.1769 3.15329 13.2987 3.13516C13.4205 3.11703 13.5446 3.12308 13.6641 3.15292C13.7835 3.18277 13.8959 3.23587 13.9949 3.30917C14.0938 3.38245 14.1773 3.47452 14.2407 3.58008C14.304 3.68564 14.346 3.80267 14.3641 3.92444C14.3822 4.04623 14.3762 4.17038 14.3463 4.28983C14.3165 4.40927 14.2634 4.52167 14.1901 4.62061C14.1168 4.71954 14.0247 4.80304 13.9192 4.86639L9.00903 7.8125L13.9192 10.7586C14.1324 10.8865 14.286 11.0938 14.3464 11.3349C14.4067 11.576 14.3689 11.8313 14.2411 12.0445Z" fill="#3624FF" fill-opacity="1.000000" fill-rule="nonzero"/>
</svg>
